<svg xmlns="http://www.w3.org/2000/svg" viewBox="0 0 28.8 15.72"><defs><style>.cls-1{fill:#ecd3bc;}</style></defs><g id="Capa_2" data-name="Capa 2"><g id="Capa_1-2" data-name="Capa 1"><path class="cls-1" d="M11.22,15.72c-2.76,0-5-.31-5.71-1.2-.3-.39-.48-1,.31-2l.09-.11.15-.05a14.07,14.07,0,0,1,3.27-.68A11.06,11.06,0,0,0,12.55,11a7.53,7.53,0,0,0-1.76-.34,8.62,8.62,0,0,1-2.43-.54L5.91,9l2.76.15c6.89.37,7.53,1.12,7.59,1.78s-.33,1.31-5.06,2.33a48.17,48.17,0,0,0,5.4-.33,32.56,32.56,0,0,1,8.93-.06L26,13,26,14.19l-.49.09A104.58,104.58,0,0,1,11.22,15.72Zm-4.53-2.5c-.2.25-.36.56-.2.75,1.1,1.43,11.17.52,16.93-.35a40.55,40.55,0,0,0-6.69.29,36.42,36.42,0,0,1-8,.19L8.22,14V12.85A8.66,8.66,0,0,0,6.69,13.22Zm7.45-2.48.28.23-.46.35a4.2,4.2,0,0,1-.49.33A5.72,5.72,0,0,0,15,11,3.52,3.52,0,0,0,14.14,10.74Z"/><path class="cls-1" d="M21.81,12.36l-4-3.59-1.18,1L13.71,5.41l-1.29,2.1L10.07,3.34,6.38,7.49l-1-1.14c-.2.27-.37.56-.55.85C4.1,8.33,3.27,9.73.94,9.24L0,9.05,5.3,4l1,.48,4-4.43,2.17,3.1.82-1.35,3.61,4.41,0,0,.41.13a7.07,7.07,0,0,1,3.29,2.47c.21.24.42.49.65.73l.68-.76,6.86,2.65-1,.48a4.26,4.26,0,0,1-3.59-.35,2.81,2.81,0,0,0-1.46-.4,1.24,1.24,0,0,0-.56.59Zm.5-2.42-.31.35a1.62,1.62,0,0,1,.33-.13,1.53,1.53,0,0,1,.36-.07ZM3.44,7.24l-1,1A2.34,2.34,0,0,0,3.44,7.24ZM16,6.84l.87,1.29.77-.62-.34-.17-.46.52ZM5.93,5.38l.44.48.17-.2ZM11.74,4l.73,1.28,1-1.6,0,0-.9,1.47Z"/></g></g></svg>