<svg id="Capa_1" data-name="Capa 1" xmlns="http://www.w3.org/2000/svg" viewBox="0 0 164.42 36.58"><defs><style>.cls-1,.cls-2{fill:#ecd3bc;}.cls-2{font-size:8.92px;font-family:Ribes-Black, Ribes;font-weight:800;letter-spacing:0.5em;}.cls-3{letter-spacing:0.48em;}</style></defs><path class="cls-1" d="M91.45,78a22.74,22.74,0,0,1,2.75.18,9.56,9.56,0,0,1,2.33.52.67.67,0,0,1,.36.19.82.82,0,0,1,.12.4l.37,3.58s0,.09-.14.1a.17.17,0,0,1-.2-.07,7.82,7.82,0,0,0-2.72-3.12,7.16,7.16,0,0,0-4.06-1.14,6.45,6.45,0,0,0-3.45.88A5.51,5.51,0,0,0,84.68,82,8.69,8.69,0,0,0,84,85.57a10.71,10.71,0,0,0,.51,3.34,8.92,8.92,0,0,0,1.46,2.73,7,7,0,0,0,2.25,1.84,6.24,6.24,0,0,0,2.89.67,5.94,5.94,0,0,0,3.49-1.08,9.5,9.5,0,0,0,2.75-3.35.18.18,0,0,1,.21-.08c.1,0,.15,0,.15.1l-.45,3.51a1.23,1.23,0,0,1-.14.4,1,1,0,0,1-.35.19,18.71,18.71,0,0,1-2.81.65,20.27,20.27,0,0,1-2.76.2,14.77,14.77,0,0,1-5-.76,9.5,9.5,0,0,1-3.42-2,7.84,7.84,0,0,1-1.95-2.73,7.42,7.42,0,0,1-.62-2.93,6.46,6.46,0,0,1,.92-3.43,8.45,8.45,0,0,1,2.53-2.6,12.63,12.63,0,0,1,3.62-1.66A15.13,15.13,0,0,1,91.45,78Z" transform="translate(-46.56 -75.69)"/><path class="cls-1" d="M106.2,94.72a6.93,6.93,0,0,1-3.32-.75,5.5,5.5,0,0,1-2.16-2,5.14,5.14,0,0,1-.76-2.69,4.36,4.36,0,0,1,.61-2.32,5.05,5.05,0,0,1,1.61-1.61,7.63,7.63,0,0,1,2.19-.94,9.07,9.07,0,0,1,2.34-.31,6.77,6.77,0,0,1,3.33.77,5.59,5.59,0,0,1,2.12,2,4.93,4.93,0,0,1,.73,2.57A4.37,4.37,0,0,1,112,92.2a6.13,6.13,0,0,1-2.45,1.86A8.22,8.22,0,0,1,106.2,94.72Zm.91-.54a2,2,0,0,0,1.82-1,5.43,5.43,0,0,0,.61-2.83,7.82,7.82,0,0,0-.56-3.15,4.68,4.68,0,0,0-1.45-1.91,3.05,3.05,0,0,0-1.85-.64,2.07,2.07,0,0,0-1.81.9,4.93,4.93,0,0,0-.62,2.79,8.61,8.61,0,0,0,.51,3.08,4.87,4.87,0,0,0,1.4,2A3,3,0,0,0,107.11,94.18Z" transform="translate(-46.56 -75.69)"/><path class="cls-1" d="M119.61,94.72a5,5,0,0,1-2.39-.59,4.47,4.47,0,0,1-1.73-1.72,5.27,5.27,0,0,1-.66-2.72,4.93,4.93,0,0,1,.67-2.64,5.3,5.3,0,0,1,1.72-1.71,7.86,7.86,0,0,1,2.27-1,10.14,10.14,0,0,1,2.31-.29,8.64,8.64,0,0,1,2,.23,9.52,9.52,0,0,1,1.71.57l-.7,2.08a4.64,4.64,0,0,0-1.46-1.68,3.64,3.64,0,0,0-2-.53,3.32,3.32,0,0,0-2.46.91,4.45,4.45,0,0,0-.92,3.19,6.63,6.63,0,0,0,.43,2.5,3.5,3.5,0,0,0,1.19,1.57,2.84,2.84,0,0,0,1.7.54,3.94,3.94,0,0,0,2.13-.57,10.94,10.94,0,0,0,1.76-1.36l.31.23a19.55,19.55,0,0,1-1.51,1.3,9,9,0,0,1-2,1.16A5.86,5.86,0,0,1,119.61,94.72ZM127,76V91.39a2.82,2.82,0,0,0,.19,1.24.7.7,0,0,0,.66.36,2,2,0,0,0,.53-.08l.72-.2q.09-.06.18.09c.06.09.07.16,0,.19l-4.2,1.73-.15,0c-.2,0-.39-.21-.56-.64a4.93,4.93,0,0,1-.26-1.83V79.2a3.37,3.37,0,0,0-.18-1.28.72.72,0,0,0-.7-.4,2.13,2.13,0,0,0-.51.08,5,5,0,0,0-.62.21c-.08,0-.15,0-.21-.13s-.07-.16,0-.18l4.47-1.78a.27.27,0,0,1,.12,0,.61.61,0,0,1,.33.12C127,75.89,127,76,127,76Z" transform="translate(-46.56 -75.69)"/><path class="cls-1" d="M136.51,94.69a7.51,7.51,0,0,1-3.36-.69,5.06,5.06,0,0,1-2.09-1.85,4.47,4.47,0,0,1-.72-2.43,4.62,4.62,0,0,1,.91-2.77,6.42,6.42,0,0,1,2.48-2,8.13,8.13,0,0,1,3.54-.75,5.16,5.16,0,0,1,2.89.68,2.16,2.16,0,0,1,1,1.87,2.12,2.12,0,0,1-.06.52.28.28,0,0,1-.28.23h-2.92a4,4,0,0,0-.33-2,1.46,1.46,0,0,0-1.43-.78,2.32,2.32,0,0,0-2,1.07,4.85,4.85,0,0,0-.76,2.84,5.45,5.45,0,0,0,.55,2.53,4,4,0,0,0,1.58,1.68,5,5,0,0,0,2.5.59,7.48,7.48,0,0,0,1.56-.18,5.74,5.74,0,0,0,1.51-.54s.09,0,.16.05.09.13,0,.18a7,7,0,0,1-2.3,1.35A7.59,7.59,0,0,1,136.51,94.69Zm-4.16-7.14,0-.49,6.66-.13v.57Z" transform="translate(-46.56 -75.69)"/><path class="cls-1" d="M147.37,80.88a2.67,2.67,0,0,0,.59,1.71,6.41,6.41,0,0,0,1.55,1.33c.64.39,1.32.79,2,1.18s1.5.85,2.2,1.3A6.77,6.77,0,0,1,155.47,88a3.35,3.35,0,0,1,.69,2.12,3.6,3.6,0,0,1-.87,2.4A5.66,5.66,0,0,1,153,94.11a9,9,0,0,1-3.36.58,12.66,12.66,0,0,1-1.9-.15,13,13,0,0,1-1.79-.39,4.12,4.12,0,0,1-1.18-.49,1.2,1.2,0,0,1-.21-.17.44.44,0,0,1-.09-.32l-.09-4.1c0-.08,0-.13.14-.14s.17,0,.19.09c.31.53.64,1.1,1,1.69a10.48,10.48,0,0,0,1.23,1.64,6.32,6.32,0,0,0,1.53,1.22,3.91,3.91,0,0,0,1.95.48,4.27,4.27,0,0,0,1.34-.21,2.18,2.18,0,0,0,1.05-.75,2.44,2.44,0,0,0,.41-1.49,3.38,3.38,0,0,0-.64-2.08A6.49,6.49,0,0,0,150.9,88c-.67-.44-1.37-.85-2.1-1.25s-1.39-.8-2-1.22a6.12,6.12,0,0,1-1.58-1.44,3.21,3.21,0,0,1-.61-2,3.12,3.12,0,0,1,1-2.36A5.87,5.87,0,0,1,148,78.43a10.58,10.58,0,0,1,3-.44,13.47,13.47,0,0,1,2.19.17,8.75,8.75,0,0,1,1.73.4.63.63,0,0,1,.38.23.54.54,0,0,1,.08.28v3.79s-.05.09-.14.12a.19.19,0,0,1-.2,0q-.18-.31-.51-1a10,10,0,0,0-.89-1.48,5,5,0,0,0-1.39-1.33,3.72,3.72,0,0,0-2.07-.55,3.66,3.66,0,0,0-1.39.25,2.47,2.47,0,0,0-1,.76A2.14,2.14,0,0,0,147.37,80.88Z" transform="translate(-46.56 -75.69)"/><path class="cls-1" d="M164.86,94.69a7,7,0,0,1-3.47-.76,5,5,0,0,1-2.68-4.34,4.25,4.25,0,0,1,.64-2.3A5.53,5.53,0,0,1,161,85.61a8.22,8.22,0,0,1,2.33-1,9.24,9.24,0,0,1,2.52-.36,7,7,0,0,1,1.76.22,4.19,4.19,0,0,1,1.46.64,1.28,1.28,0,0,1,.58,1.07,1.09,1.09,0,0,1-.42.82,2.27,2.27,0,0,1-2.44,0,2.24,2.24,0,0,1-.67-1,3.22,3.22,0,0,0-.47-1,1.23,1.23,0,0,0-1-.32,2.42,2.42,0,0,0-2.08,1.11,4.91,4.91,0,0,0-.77,2.89,6.05,6.05,0,0,0,.45,2.36,3.66,3.66,0,0,0,1.49,1.7,5.29,5.29,0,0,0,2.77.63,5.53,5.53,0,0,0,1.53-.18,13.14,13.14,0,0,0,1.39-.49s.09,0,.17,0,.08.12,0,.16a9.08,9.08,0,0,1-2.19,1.27A7.08,7.08,0,0,1,164.86,94.69Z" transform="translate(-46.56 -75.69)"/><path class="cls-1" d="M173.92,94.56a2.51,2.51,0,0,1-1.52-.42,1.41,1.41,0,0,1-.58-1.23,1.36,1.36,0,0,1,.84-1.32,15.64,15.64,0,0,1,2.6-.89l3.4-.93.12.39-2.09.64a3.31,3.31,0,0,0-1.18.57.94.94,0,0,0-.34.74,1.07,1.07,0,0,0,.36.86,1.39,1.39,0,0,0,.91.3,3.36,3.36,0,0,0,.66-.09,6.71,6.71,0,0,0,.89-.27l1.68-.77,0,.44-2.62,1.21a10.16,10.16,0,0,1-1.61.55A6.14,6.14,0,0,1,173.92,94.56Zm6.38,0a.85.85,0,0,1-.3,0,1.5,1.5,0,0,1-1.09-.62,2.56,2.56,0,0,1-.55-1.78V87.81a7.91,7.91,0,0,0-.15-1.68,2.13,2.13,0,0,0-.49-1,1.25,1.25,0,0,0-.91-.34,1.69,1.69,0,0,0-.82.2,1.3,1.3,0,0,0-.58.62,3.23,3.23,0,0,0-.28,1.17,1.53,1.53,0,0,1-.54,1.09,2,2,0,0,1-1.25.35,1.66,1.66,0,0,1-1.09-.28,1,1,0,0,1-.34-.77,1.45,1.45,0,0,1,.64-1.1,6.9,6.9,0,0,1,1.6-.95,10.59,10.59,0,0,1,2-.67A7.82,7.82,0,0,1,178,84.2a3.8,3.8,0,0,1,2.28.68,2.5,2.5,0,0,1,.95,2.16V91.6a1.82,1.82,0,0,0,.32,1.16,1.07,1.07,0,0,0,.89.41,2.35,2.35,0,0,0,.88-.18.15.15,0,0,1,.2.09c.05.1,0,.16-.07.19Z" transform="translate(-46.56 -75.69)"/><path class="cls-1" d="M184.2,101.47c-.07,0-.1,0-.1-.15s0-.16.1-.16a2,2,0,0,0,1.38-.33,2.28,2.28,0,0,0,.32-1.45V87.45a2.49,2.49,0,0,0-.21-1.17.81.81,0,0,0-.76-.38,2.57,2.57,0,0,0-.61.09,4.94,4.94,0,0,0-.79.27c-.08,0-.15,0-.22-.1s-.07-.16,0-.18l4.32-1.78a.34.34,0,0,1,.15,0c.23,0,.44.2.66.61a4,4,0,0,1,.32,1.78V99.38a2.55,2.55,0,0,0,.19,1.11,1.1,1.1,0,0,0,.78.53,8.09,8.09,0,0,0,1.73.14c.06,0,.09,0,.09.16s0,.15-.09.15l-1.91,0q-1.07,0-2.25,0c-.57,0-1.12,0-1.66,0Zm7.14-6.75a10.66,10.66,0,0,1-2-.16,18.3,18.3,0,0,1-2-.49l1.06-1.62a7.17,7.17,0,0,0,1.45,1.16,4,4,0,0,0,2.08.46,2.71,2.71,0,0,0,2.25-1,5.53,5.53,0,0,0,.82-3.38,4,4,0,0,0-1.12-3.08,3.83,3.83,0,0,0-2.65-1,3.72,3.72,0,0,0-1.95.49,9.79,9.79,0,0,0-1.61,1.24l-.3-.31a11.39,11.39,0,0,1,3-2.19,6.69,6.69,0,0,1,2.91-.67,5.16,5.16,0,0,1,2.37.55,4.59,4.59,0,0,1,1.78,1.61,4.72,4.72,0,0,1,.68,2.58,5.74,5.74,0,0,1-.62,2.78,5.13,5.13,0,0,1-1.63,1.82,6.75,6.75,0,0,1-2.17,1A9.26,9.26,0,0,1,191.34,94.72Z" transform="translate(-46.56 -75.69)"/><path class="cls-1" d="M206.15,94.69a7.45,7.45,0,0,1-3.36-.69,5.15,5.15,0,0,1-2.1-1.85,4.6,4.6,0,0,1,.2-5.2,6.35,6.35,0,0,1,2.48-2,8.07,8.07,0,0,1,3.54-.75,5.16,5.16,0,0,1,2.89.68,2.15,2.15,0,0,1,1,1.87,2.12,2.12,0,0,1-.06.52.27.27,0,0,1-.27.23h-2.92a4,4,0,0,0-.33-2,1.46,1.46,0,0,0-1.43-.78,2.32,2.32,0,0,0-2,1.07,4.78,4.78,0,0,0-.76,2.84,5.45,5.45,0,0,0,.55,2.53,3.94,3.94,0,0,0,1.58,1.68,5,5,0,0,0,2.49.59,7.49,7.49,0,0,0,1.57-.18,5.67,5.67,0,0,0,1.5-.54s.1,0,.17.05.09.13.05.18a7,7,0,0,1-2.3,1.35A7.63,7.63,0,0,1,206.15,94.69ZM202,87.55l0-.49,6.65-.13v.57Z" transform="translate(-46.56 -75.69)"/><text class="cls-2" transform="translate(77.16 30.67) scale(1.18 1)">H<tspan class="cls-3" x="10.48" y="0">O</tspan><tspan x="21.3" y="0">TEL</tspan></text><path class="cls-1" d="M57.78,93.4c-2.76,0-5-.31-5.71-1.21-.3-.38-.48-1,.31-2l.09-.11.15,0a14.07,14.07,0,0,1,3.27-.68,11.06,11.06,0,0,0,3.22-.72,7,7,0,0,0-1.76-.34,8.62,8.62,0,0,1-2.43-.54l-2.45-1.09,2.76.15c6.89.37,7.53,1.12,7.59,1.78s-.33,1.3-5.06,2.33a45.91,45.91,0,0,0,5.4-.34,33,33,0,0,1,8.93,0l.45.08.06,1.24-.49.09A104.58,104.58,0,0,1,57.78,93.4Zm-4.53-2.5c-.2.25-.35.55-.2.75,1.1,1.43,11.17.52,16.93-.35a40.6,40.6,0,0,0-6.69.29,35.82,35.82,0,0,1-8,.18l-.49-.06V90.53A8.66,8.66,0,0,0,53.25,90.9Zm7.45-2.48.28.23-.46.35a4.2,4.2,0,0,1-.49.33,5.57,5.57,0,0,0,1.55-.64A4.25,4.25,0,0,0,60.7,88.42Z" transform="translate(-46.56 -75.69)"/><path class="cls-1" d="M68.37,90l-4-3.59-1.18.94-2.89-4.3L59,85.19,56.63,81l-3.69,4.15L51.9,84c-.2.27-.37.56-.55.85-.69,1.12-1.52,2.53-3.85,2l-.94-.19,5.3-5.1,1,.48,4-4.43L59,80.78l.82-1.35,3.61,4.41,0,0,.41.13a7.07,7.07,0,0,1,3.29,2.47l.65.73.68-.76L75.36,89l-1,.47a4.21,4.21,0,0,1-3.6-.35,2.88,2.88,0,0,0-1.46-.39,1.15,1.15,0,0,0-.56.59Zm.5-2.42-.31.35a1.62,1.62,0,0,1,.33-.13,1.53,1.53,0,0,1,.36-.07ZM50,84.92l-1,1A2.4,2.4,0,0,0,50,84.92Zm12.58-.41.86,1.3.77-.62a3.59,3.59,0,0,0-.34-.17l-.46.52ZM52.5,83.06l.43.48.17-.2Zm5.8-1.36L59,83l1-1.59,0,0-.9,1.47Z" transform="translate(-46.56 -75.69)"/></svg>