<?xml version="1.0" encoding="utf-8"?>
<!-- Generator: Adobe Illustrator 24.1.1, SVG Export Plug-In . SVG Version: 6.00 Build 0)  -->
<svg version="1.1" id="Capa_1" xmlns="http://www.w3.org/2000/svg" xmlns:xlink="http://www.w3.org/1999/xlink" x="0px" y="0px"
	 viewBox="0 0 164.4 36.6" style="enable-background:new 0 0 164.4 36.6;" xml:space="preserve">
<style type="text/css">
	.st0{fill:#FFFFFF;}
</style>
<path class="st0" d="M44.9,2.3c0.9,0,1.8,0.1,2.8,0.2C48.4,2.6,49.2,2.7,50,3c0.1,0,0.3,0.1,0.4,0.2c0.1,0.1,0.1,0.3,0.1,0.4
	l0.4,3.6c0,0,0,0.1-0.1,0.1s-0.2,0-0.2-0.1c-0.6-1.3-1.5-2.3-2.7-3.1S45.3,2.9,43.8,3c-1.2,0-2.4,0.3-3.4,0.9
	c-0.9,0.6-1.7,1.5-2.1,2.5c-0.5,1.1-0.7,2.3-0.7,3.6c0,1.1,0.2,2.3,0.5,3.3s0.8,1.9,1.5,2.7c0.6,0.8,1.4,1.4,2.3,1.8
	c0.9,0.5,1.9,0.7,2.9,0.7c1.2,0,2.5-0.4,3.5-1.1c1.2-0.9,2.1-2,2.8-3.3c0-0.1,0.1-0.1,0.2-0.1c0.1,0,0.2,0,0.2,0.1l-0.4,3.5
	c0,0.1-0.1,0.3-0.1,0.4c-0.1,0.1-0.2,0.2-0.3,0.2c-0.9,0.3-1.9,0.5-2.8,0.7c-0.9,0.1-1.8,0.2-2.8,0.2c-1.7,0-3.4-0.2-5-0.8
	c-1.3-0.4-2.4-1.1-3.4-2c-0.8-0.8-1.5-1.7-1.9-2.7c-0.4-0.9-0.6-1.9-0.6-2.9c0-1.2,0.3-2.4,0.9-3.4c0.6-1,1.5-1.9,2.5-2.6
	C38.7,4,39.9,3.4,41.2,3C42.1,2.5,43.5,2.3,44.9,2.3z"/>
<path class="st0" d="M59.6,19c-1.2,0-2.3-0.2-3.3-0.8c-0.9-0.5-1.6-1.1-2.2-2c-0.5-0.8-0.8-1.7-0.8-2.7c0-0.8,0.2-1.6,0.6-2.3
	c0.4-0.7,1-1.2,1.6-1.6c0.7-0.4,1.4-0.7,2.2-0.9s1.5-0.3,2.3-0.3c1.2,0,2.3,0.2,3.3,0.8c0.9,0.5,1.6,1.2,2.1,2s0.7,1.7,0.7,2.6
	c0,1-0.3,2-0.9,2.8C64.8,17.3,64,18,63,18.4C61.9,18.8,60.8,19,59.6,19z M60.5,18.5c0.7,0,1.4-0.4,1.8-1c0.5-0.9,0.7-1.8,0.6-2.8
	c0-1.1-0.2-2.1-0.6-3.2c-0.3-0.8-0.8-1.4-1.4-1.9C60.4,9.2,59.8,9,59.1,9s-1.4,0.3-1.8,0.9c-0.5,0.8-0.7,1.8-0.6,2.8
	c0,1,0.2,2.1,0.5,3.1c0.3,0.8,0.8,1.5,1.4,2C59.1,18.2,59.8,18.5,60.5,18.5z"/>
<path class="st0" d="M73.1,19c-0.8,0-1.7-0.2-2.4-0.6c-0.7-0.4-1.3-1-1.7-1.7c-0.5-0.8-0.7-1.8-0.7-2.7s0.2-1.8,0.7-2.6
	c0.4-0.7,1-1.3,1.7-1.7c0.7-0.5,1.5-0.8,2.3-1s1.5-0.3,2.3-0.3c0.7,0,1.3,0.1,2,0.2c0.6,0.1,1.2,0.3,1.7,0.6l-0.7,2.1
	c-0.3-0.7-0.8-1.2-1.5-1.7c-0.6-0.4-1.3-0.6-2-0.5c-0.9,0-1.8,0.3-2.5,0.9c-0.7,0.9-1,2-0.9,3.2c0,0.9,0.1,1.7,0.4,2.5
	c0.2,0.6,0.7,1.2,1.2,1.6s1.1,0.5,1.7,0.5c0.7,0,1.5-0.2,2.1-0.6s1.2-0.8,1.8-1.4l0.3,0.2c-0.5,0.5-1,0.9-1.5,1.3
	c-0.6,0.5-1.3,0.9-2,1.2C74.7,18.8,73.9,19,73.1,19z M80.4,0.3v15.4c0,0.4,0,0.8,0.2,1.2c0.1,0.2,0.4,0.4,0.7,0.4
	c0.2,0,0.4,0,0.5-0.1l0.7-0.2c0.1,0,0.1,0,0.2,0.1s0.1,0.2,0,0.2L78.5,19h-0.2c-0.2,0-0.4-0.2-0.6-0.6c-0.2-0.6-0.3-1.2-0.3-1.8V3.5
	c0-0.4,0-0.9-0.2-1.3c0-0.2-0.2-0.4-0.5-0.4c-0.2,0-0.3,0-0.5,0.1C75.9,2,75.7,2,75.5,2.1c-0.1,0-0.1,0-0.2-0.1s-0.1-0.2,0-0.2
	L79.8,0h0.1c0.1,0,0.2,0,0.3,0.1C80.4,0.2,80.4,0.3,80.4,0.3z"/>
<path class="st0" d="M89.9,19c-1.2,0-2.3-0.2-3.4-0.7c-0.9-0.4-1.6-1-2.1-1.8c-0.5-0.7-0.7-1.6-0.7-2.4c0-1,0.3-2,0.9-2.8
	c0.6-0.9,1.5-1.6,2.5-2c1.1-0.5,2.3-0.8,3.5-0.8c1-0.1,2,0.2,2.9,0.7c0.6,0.4,1,1.1,1,1.9c0,0.2,0,0.3-0.1,0.5
	c0,0.1-0.1,0.2-0.3,0.2h-2.9c0.1-0.7-0.1-1.4-0.3-2C90.7,9.3,90.2,9,89.6,9c-0.8,0-1.6,0.4-2,1.1c-0.5,0.8-0.8,1.8-0.8,2.8
	c0,0.9,0.2,1.7,0.6,2.5c0.4,0.7,0.9,1.3,1.6,1.7c0.8,0.4,1.6,0.6,2.5,0.6c0.5,0,1-0.1,1.6-0.2c0.5-0.1,1-0.3,1.5-0.5
	c0,0,0.1,0,0.2,0.1s0.1,0.1,0,0.2c-0.7,0.6-1.5,1.1-2.3,1.3C91.6,18.9,90.8,19,89.9,19z M85.8,11.9v-0.5l6.7-0.1v0.6H85.8z"/>
<path class="st0" d="M100.8,5.2c0,0.6,0.2,1.2,0.6,1.7s1,1,1.6,1.3c0.6,0.4,1.3,0.8,2,1.2s1.5,0.8,2.2,1.3c0.7,0.4,1.3,1,1.8,1.6
	s0.7,1.4,0.7,2.1c0,0.9-0.3,1.7-0.9,2.4c-0.6,0.7-1.4,1.3-2.3,1.6c-1.1,0.4-2.2,0.6-3.4,0.6c-0.6,0-1.3-0.1-1.9-0.2
	s-1.2-0.2-1.8-0.4c-0.4-0.1-0.8-0.3-1.2-0.5c-0.1,0-0.1-0.1-0.2-0.2s-0.1-0.2-0.1-0.3l-0.1-4.1c0-0.1,0-0.1,0.1-0.1s0.2,0,0.2,0.1
	c0.3,0.5,0.6,1.1,1,1.7c0.4,0.6,0.8,1.1,1.2,1.6c0.4,0.5,1,0.9,1.5,1.2c0.6,0.3,1.3,0.5,1.9,0.5c0.5,0,0.9-0.1,1.3-0.2
	s0.8-0.4,1.1-0.8c0.3-0.4,0.4-1,0.4-1.5c0-0.7-0.2-1.5-0.6-2.1c-0.5-0.6-1-1.1-1.7-1.5s-1.4-0.8-2.1-1.3s-1.4-0.8-2-1.2
	S99,8.8,98.5,8.3c-0.4-0.6-0.6-1.3-0.6-2c0-0.9,0.3-1.8,1-2.4s1.5-1.1,2.4-1.3c1-0.3,2-0.4,3-0.4c0.7,0,1.5,0.1,2.2,0.2
	c0.6,0.1,1.2,0.2,1.7,0.4c0.2,0,0.3,0.1,0.4,0.2c0.1,0.1,0.1,0.2,0.1,0.3v3.8l-0.1,0.1c-0.1,0-0.1,0-0.2,0c-0.1-0.2-0.3-0.5-0.5-1
	c-0.3-0.5-0.6-1-0.9-1.5c-0.4-0.5-0.8-1-1.4-1.3c-0.6-0.4-1.3-0.6-2.1-0.6c-0.5,0-0.9,0.1-1.4,0.3c-0.4,0.2-0.7,0.4-1,0.8
	C101,4.3,100.8,4.7,100.8,5.2z"/>
<path class="st0" d="M118.3,19c-1.2,0-2.4-0.2-3.5-0.8c-1.6-0.8-2.6-2.5-2.7-4.3c0-0.8,0.2-1.6,0.6-2.3s1-1.2,1.6-1.7
	c0.7-0.5,1.5-0.8,2.3-1s1.7-0.4,2.5-0.4c0.6,0,1.2,0.1,1.8,0.2c0.5,0.1,1,0.3,1.5,0.6c0.4,0.2,0.6,0.6,0.6,1.1
	c0,0.3-0.2,0.6-0.4,0.8c-0.7,0.5-1.7,0.5-2.4,0c-0.3-0.3-0.5-0.6-0.7-1c-0.1-0.4-0.3-0.7-0.5-1c-0.3-0.3-0.6-0.4-1-0.3
	c-0.8,0-1.6,0.4-2.1,1.1c-0.6,0.9-0.8,1.9-0.8,2.9c0,0.8,0.1,1.6,0.4,2.4c0.3,0.7,0.8,1.3,1.5,1.7c0.8,0.5,1.8,0.7,2.8,0.6
	c0.5,0,1,0,1.5-0.2c0.5-0.1,0.9-0.3,1.4-0.5c0,0,0.1,0,0.2,0s0.1,0.1,0,0.2c-0.7,0.5-1.4,1-2.2,1.3C120,18.8,119.2,19,118.3,19z"/>
<path class="st0" d="M127.4,18.9c-0.5,0-1.1-0.1-1.5-0.4s-0.6-0.7-0.6-1.2c0-0.6,0.3-1.1,0.8-1.3c0.8-0.4,1.7-0.7,2.6-0.9l3.4-0.9
	l0.1,0.4l-2.1,0.6c-0.4,0.1-0.8,0.3-1.2,0.6c-0.2,0.2-0.3,0.5-0.3,0.7c0,0.3,0.1,0.6,0.4,0.9c0.3,0.2,0.6,0.3,0.9,0.3
	c0.2,0,0.4,0,0.7-0.1s0.6-0.2,0.9-0.3l1.7-0.8v0.4l-2.6,1.2c-0.5,0.2-1.1,0.4-1.6,0.6C128.4,18.8,127.9,18.9,127.4,18.9z
	 M133.7,18.9c-0.1,0-0.2,0-0.3,0c-0.4,0-0.8-0.3-1.1-0.6c-0.4-0.5-0.6-1.1-0.6-1.8v-4.3c0-0.6,0-1.1-0.1-1.7c-0.1-0.4-0.2-0.7-0.5-1
	c-0.2-0.2-0.6-0.4-0.9-0.3c-0.3,0-0.6,0.1-0.8,0.2c-0.3,0.1-0.5,0.4-0.6,0.6c-0.2,0.4-0.3,0.8-0.3,1.2s-0.2,0.8-0.5,1.1
	c-0.4,0.3-0.8,0.4-1.3,0.3c-0.4,0-0.8-0.1-1.1-0.3c-0.2-0.2-0.3-0.5-0.3-0.8c0-0.4,0.3-0.9,0.6-1.1c0.5-0.4,1-0.7,1.6-0.9
	c0.6-0.3,1.3-0.5,2-0.7c0.6-0.2,1.2-0.2,1.8-0.3c0.8,0,1.6,0.2,2.3,0.7s1,1.3,0.9,2.2V16c0,0.4,0.1,0.8,0.3,1.2
	c0.2,0.3,0.5,0.4,0.9,0.4c0.3,0,0.6-0.1,0.9-0.2c0.1,0,0.2,0,0.2,0.1l0,0c0.1,0.1,0,0.2-0.1,0.2L133.7,18.9z"/>
<path class="st0" d="M137.6,25.8c-0.1,0-0.1,0-0.1-0.2s0-0.2,0.1-0.2c0.5,0.1,1-0.1,1.4-0.3c0.3-0.4,0.4-0.9,0.3-1.4V11.8
	c0-0.4,0-0.8-0.2-1.2c-0.2-0.3-0.5-0.4-0.8-0.4c-0.2,0-0.4,0-0.6,0.1c-0.3,0.1-0.5,0.2-0.8,0.3c-0.1,0-0.1,0-0.2-0.1s-0.1-0.2,0-0.2
	l4.3-1.8h0.1c0.2,0,0.4,0.2,0.7,0.6c0.2,0.6,0.4,1.2,0.3,1.8v12.8c0,0.4,0,0.8,0.2,1.1c0.2,0.3,0.5,0.5,0.8,0.5
	c0.6,0.1,1.1,0.2,1.7,0.1c0.1,0,0.1,0,0.1,0.2s0,0.2-0.1,0.2H143c-0.7,0-1.5,0-2.3,0c-0.6,0-1.1,0-1.7,0
	C139,25.8,137.6,25.8,137.6,25.8z M144.8,19c-0.7,0-1.3,0-2-0.2c-0.7-0.1-1.3-0.3-2-0.5l1.1-1.6c0.4,0.4,0.9,0.8,1.4,1.2
	c0.6,0.3,1.4,0.5,2.1,0.5c0.9,0,1.7-0.3,2.3-1c0.6-1,0.9-2.2,0.8-3.4c0.1-1.1-0.3-2.3-1.1-3.1c-0.7-0.7-1.7-1-2.6-1
	c-0.7,0-1.4,0.2-1.9,0.5c-0.6,0.4-1.1,0.8-1.6,1.2l-0.3-0.3c0.9-0.9,1.9-1.6,3-2.2c0.9-0.4,1.9-0.7,2.9-0.7c0.8,0,1.6,0.2,2.4,0.6
	c0.7,0.4,1.3,0.9,1.8,1.6c0.5,0.8,0.7,1.7,0.7,2.6c0,1-0.2,1.9-0.6,2.8c-0.4,0.7-0.9,1.4-1.6,1.8c-0.7,0.5-1.4,0.8-2.2,1
	C146.4,19,145.6,19.1,144.8,19z"/>
<path class="st0" d="M159.6,19c-1.2,0-2.3-0.2-3.4-0.7c-0.9-0.4-1.6-1.1-2.1-1.8c-1-1.6-0.9-3.7,0.2-5.2c0.6-0.9,1.5-1.6,2.5-2
	c1.1-0.5,2.3-0.8,3.5-0.8c1-0.1,2,0.2,2.9,0.7c0.6,0.4,1,1.1,1,1.9c0,0.2,0,0.3-0.1,0.5c0,0.1-0.1,0.2-0.3,0.2H161
	c0.1-0.7-0.1-1.4-0.3-2c-0.3-0.5-0.8-0.8-1.4-0.8c-0.8,0-1.6,0.4-2,1.1c-0.5,0.8-0.8,1.8-0.8,2.8c0,0.9,0.2,1.7,0.6,2.5
	c0.3,0.7,0.9,1.3,1.6,1.7c0.8,0.4,1.6,0.6,2.5,0.6c0.5,0,1.1-0.1,1.6-0.2s1-0.3,1.5-0.5c0,0,0.1,0,0.2,0.1s0.1,0.1,0.1,0.2
	c-0.7,0.6-1.5,1.1-2.3,1.3C161.3,18.9,160.4,19,159.6,19z M155.4,11.9v-0.5l6.6-0.1v0.6H155.4z"/>
<path class="st0" d="M11.2,17.7c-2.8,0-5-0.3-5.7-1.2c-0.3-0.4-0.5-1,0.3-2l0.1-0.1h0.2c1.1-0.4,2.2-0.6,3.3-0.7
	c1.1-0.1,2.2-0.3,3.2-0.7c-0.6-0.2-1.2-0.3-1.8-0.3c-0.8-0.1-1.7-0.2-2.4-0.5L5.9,11l2.8,0.2c6.9,0.4,7.5,1.1,7.6,1.8
	s-0.3,1.3-5.1,2.3c1.8,0,3.6-0.1,5.4-0.3c3-0.4,6-0.4,8.9,0H26l0.1,1.2l-0.5,0.1C20.8,17.1,16,17.6,11.2,17.7z M6.7,15.2
	c-0.2,0.3-0.3,0.6-0.2,0.8c1.1,1.4,11.2,0.5,16.9-0.3c-2.2-0.1-4.5,0-6.7,0.3c-2.7,0.4-5.3,0.4-8,0.2L8.2,16v-1.2
	C7.7,14.9,7.2,15,6.7,15.2z M14.1,12.7l0.3,0.2L14,13.3c-0.2,0.1-0.3,0.2-0.5,0.3c0.5-0.1,1.1-0.3,1.5-0.6
	C14.7,12.9,14.4,12.8,14.1,12.7z"/>
<path class="st0" d="M21.8,14.3l-4-3.6l-1.2,0.9l-2.9-4.3l-1.3,2.1L10,5.2L6.4,9.5l-1-1.2C5.1,8.6,5,8.9,4.8,9.2
	c-0.7,1.1-1.5,2.5-3.8,2L0,11l5.3-5.1l1,0.5l4-4.4l2.1,3.2l0.8-1.3l3.6,4.4l0,0l0.4,0.1c1.3,0.5,2.5,1.3,3.3,2.5l0.7,0.7l0.7-0.8
	l6.9,2.6l-1,0.5c-1.2,0.4-2.5,0.3-3.6-0.3c-0.4-0.3-0.9-0.4-1.5-0.4c-0.3,0.1-0.5,0.3-0.6,0.6L21.8,14.3z M22.3,11.9L22,12.2
	c0.1-0.1,0.2-0.1,0.3-0.1c0.1,0,0.2-0.1,0.4-0.1L22.3,11.9z M3.4,9.2l-1,1C2.9,10,3.2,9.7,3.4,9.2z M16,8.8l0.9,1.3l0.8-0.6
	c-0.1-0.1-0.2-0.1-0.3-0.2l-0.5,0.5L16,8.8z M5.9,7.4l0.4,0.5l0.2-0.2L5.9,7.4z M11.7,6l0.7,1.3l1-1.6l0,0l-0.9,1.5L11.7,6z"/>
</svg>
